<svg width="1280" height="640" viewBox="0 0 1280 640" fill="none" xmlns="http://www.w3.org/2000/svg">
  <defs>
    <linearGradient id="bg" x1="0" y1="0" x2="1280" y2="640" gradientUnits="userSpaceOnUse">
      <stop stop-color="#07111F"/>
      <stop offset="0.52" stop-color="#0B1728"/>
      <stop offset="1" stop-color="#0D2131"/>
    </linearGradient>
    <linearGradient id="accent" x1="250" y1="170" x2="980" y2="500" gradientUnits="userSpaceOnUse">
      <stop stop-color="#58A6FF"/>
      <stop offset="0.52" stop-color="#22D3EE"/>
      <stop offset="1" stop-color="#34D399"/>
    </linearGradient>
    <radialGradient id="glow" cx="0" cy="0" r="1" gradientUnits="userSpaceOnUse" gradientTransform="translate(945 126) rotate(136.7) scale(416 382)">
      <stop stop-color="#22D3EE" stop-opacity="0.22"/>
      <stop offset="1" stop-color="#22D3EE" stop-opacity="0"/>
    </radialGradient>
    <filter id="shadow" x="-20%" y="-20%" width="140%" height="140%">
      <feDropShadow dx="0" dy="20" stdDeviation="32" flood-color="#000000" flood-opacity="0.32"/>
    </filter>
  </defs>

  <rect width="1280" height="640" rx="32" fill="url(#bg)"/>
  <rect width="1280" height="640" rx="32" fill="url(#glow)"/>

  <g opacity="0.10">
    <path d="M0 128H1280M0 256H1280M0 384H1280M0 512H1280" stroke="#A7C7E7"/>
    <path d="M128 0V640M256 0V640M384 0V640M512 0V640M640 0V640M768 0V640M896 0V640M1024 0V640M1152 0V640" stroke="#A7C7E7"/>
  </g>

  <g transform="translate(92 96)">
    <rect x="0" y="0" width="86" height="86" rx="24" fill="#0F2235" stroke="#2B4B67"/>
    <path d="M24 25H62V31H24V25ZM24 40H62V46H24V40ZM24 55H48V61H24V55Z" fill="url(#accent)"/>
    <circle cx="62" cy="58" r="12" fill="#0B1728" stroke="#34D399" stroke-width="4"/>
    <path d="M57 58L61 62L68 54" stroke="#34D399" stroke-width="4" stroke-linecap="round" stroke-linejoin="round"/>
  </g>

  <text x="92" y="264" fill="#F8FAFC" font-family="Inter,Segoe UI,Arial,sans-serif" font-size="78" font-weight="800" letter-spacing="-2">ProvaScan</text>
  <text x="94" y="319" fill="#AFC4D8" font-family="Inter,Segoe UI,Arial,sans-serif" font-size="28" font-weight="500">Avaliações escolares, OCR/OMR e correção assistida com revisão humana.</text>

  <g transform="translate(92 370)" font-family="Inter,Segoe UI,Arial,sans-serif" font-size="20" font-weight="600">
    <rect width="162" height="48" rx="24" fill="#10253A" stroke="#2A4B68"/>
    <text x="81" y="31" text-anchor="middle" fill="#BBD7EF">Next.js 16</text>

    <rect x="178" width="154" height="48" rx="24" fill="#10253A" stroke="#2A4B68"/>
    <text x="255" y="31" text-anchor="middle" fill="#BBD7EF">React 19</text>

    <rect x="348" width="170" height="48" rx="24" fill="#10253A" stroke="#2A4B68"/>
    <text x="433" y="31" text-anchor="middle" fill="#BBD7EF">TypeScript</text>

    <rect x="534" width="154" height="48" rx="24" fill="#10253A" stroke="#2A4B68"/>
    <text x="611" y="31" text-anchor="middle" fill="#BBD7EF">Supabase</text>
  </g>

  <g transform="translate(868 182)" filter="url(#shadow)">
    <rect width="300" height="290" rx="30" fill="#0D1E31" stroke="#28435D"/>
    <rect x="24" y="24" width="252" height="48" rx="14" fill="#132A40"/>
    <circle cx="48" cy="48" r="8" fill="#34D399"/>
    <rect x="68" y="40" width="112" height="16" rx="8" fill="#6C8CAA"/>

    <rect x="24" y="94" width="120" height="78" rx="18" fill="#10263A" stroke="#21445F"/>
    <rect x="156" y="94" width="120" height="78" rx="18" fill="#10263A" stroke="#21445F"/>
    <rect x="24" y="184" width="252" height="82" rx="18" fill="#10263A" stroke="#21445F"/>

    <path d="M45 231C67 208 88 245 110 218C130 193 151 231 171 211C193 188 213 219 253 195" stroke="url(#accent)" stroke-width="6" stroke-linecap="round"/>
    <circle cx="58" cy="130" r="18" fill="#58A6FF" fill-opacity="0.20" stroke="#58A6FF"/>
    <path d="M49 130L55 136L67 122" stroke="#58A6FF" stroke-width="4" stroke-linecap="round" stroke-linejoin="round"/>
    <circle cx="190" cy="130" r="18" fill="#34D399" fill-opacity="0.18" stroke="#34D399"/>
    <path d="M181 130L187 136L199 122" stroke="#34D399" stroke-width="4" stroke-linecap="round" stroke-linejoin="round"/>
  </g>

  <rect x="92" y="500" width="1090" height="1" fill="#24435D"/>
  <text x="92" y="548" fill="#7F9BB3" font-family="Inter,Segoe UI,Arial,sans-serif" font-size="21">github.com/Pepeu2010/provascan</text>
  <text x="1182" y="548" text-anchor="end" fill="#7F9BB3" font-family="Inter,Segoe UI,Arial,sans-serif" font-size="21">provascan-app.vercel.app</text>
</svg>
